<?xml version="1.0" standalone="no"?>
<!DOCTYPE svg PUBLIC "-//W3C//DTD SVG 20010904//EN"
 "http://www.w3.org/TR/2001/REC-SVG-20010904/DTD/svg10.dtd">
<svg version="1.0" xmlns="http://www.w3.org/2000/svg"
 width="168.000000pt" height="168.000000pt" viewBox="0 0 168.000000 168.000000"
 preserveAspectRatio="xMidYMid meet">

<g transform="translate(0.000000,168.000000) scale(0.100000,-0.100000)"
fill="#000000" stroke="none">
<path d="M135 1665 c-51 -18 -110 -81 -124 -131 -7 -26 -11 -220 -11 -564 0
-496 1 -523 17 -500 9 14 19 27 22 30 3 3 11 13 16 22 16 27 66 99 112 160 24
31 43 59 43 62 0 3 20 34 45 69 l45 65 0 241 0 241 168 0 168 0 36 48 c20 26
38 52 39 57 2 6 6 15 11 20 4 6 19 24 33 41 14 18 25 37 25 43 0 6 3 11 8 11
7 0 62 82 62 94 0 3 -152 6 -337 6 -265 -1 -347 -4 -378 -15z"/>
<path d="M460 1173 l0 -68 29 45 c15 25 35 51 44 59 28 22 20 31 -28 31 l-45
0 0 -67z"/>
<path d="M1643 1120 c-17 -25 -38 -52 -45 -61 -7 -9 -17 -23 -23 -31 -9 -15
-81 -117 -142 -202 -15 -22 -37 -54 -48 -71 -17 -28 -53 -80 -111 -161 -14
-20 -13 -22 11 -28 21 -5 25 -12 25 -42 0 -33 -2 -36 -22 -30 -68 19 -72 18
-98 -21 -13 -21 -35 -51 -47 -66 -30 -37 -29 -72 3 -104 22 -22 32 -25 77 -21
29 3 59 7 67 9 11 3 15 -5 15 -31 0 -35 0 -35 -55 -44 -68 -10 -132 5 -168 41
l-25 25 -23 -29 c-13 -15 -23 -32 -24 -38 0 -5 -14 -26 -30 -45 -16 -19 -30
-38 -30 -41 0 -3 -18 -30 -40 -59 -22 -29 -40 -57 -40 -62 0 -13 618 -10 665
3 53 15 120 82 134 136 8 28 10 195 9 529 l-3 489 -32 -45z"/>
</g>
</svg>
